<?xml version="1.0" standalone="no"?>
<!DOCTYPE svg PUBLIC "-//W3C//DTD SVG 20010904//EN"
 "http://www.w3.org/TR/2001/REC-SVG-20010904/DTD/svg10.dtd">
<svg version="1.0" xmlns="http://www.w3.org/2000/svg"
 width="784.000000pt" height="784.000000pt" viewBox="0 0 784.000000 784.000000"
 preserveAspectRatio="xMidYMid meet">
<metadata>
Created by potrace 1.11, written by Peter Selinger 2001-2013
</metadata>
<g transform="translate(0.000000,784.000000) scale(0.100000,-0.100000)"
fill="#000000" stroke="none">
<path d="M6566 7373 c-1 -1 -59 -3 -130 -5 -70 -2 -130 -6 -133 -11 -2 -4 -9
-4 -15 -1 -12 8 -24 8 -273 -1 -99 -3 -247 -7 -330 -10 -82 -2 -226 -7 -320
-10 -179 -6 -384 -13 -625 -20 -182 -5 -453 -13 -680 -21 -96 -3 -236 -7 -310
-9 -74 -2 -205 -6 -290 -9 -170 -6 -441 -14 -675 -21 -82 -3 -226 -7 -320 -10
-93 -3 -235 -8 -315 -10 -80 -2 -215 -7 -300 -9 -85 -3 -245 -8 -355 -11 -264
-8 -294 -10 -398 -31 -127 -24 -337 -109 -462 -187 -34 -21 -100 -72 -103 -79
-2 -5 -8 -8 -13 -8 -19 0 -179 -159 -224 -221 -13 -19 -29 -39 -34 -46 -73
-84 -198 -352 -217 -463 -3 -14 -7 -32 -11 -40 -3 -8 -7 -24 -9 -35 -1 -11 -6
-38 -9 -60 -11 -65 -14 -305 -4 -370 4 -33 11 -91 14 -130 3 -38 8 -95 10
-125 9 -88 15 -160 20 -230 3 -36 7 -85 10 -110 2 -25 7 -79 10 -120 5 -81 12
-166 20 -245 13 -139 20 -226 29 -350 3 -33 7 -85 10 -115 3 -30 8 -91 12
-135 3 -44 8 -96 10 -115 6 -69 13 -156 18 -225 3 -38 8 -95 11 -125 9 -91 14
-160 20 -250 3 -47 8 -100 10 -118 3 -18 7 -63 10 -100 10 -129 14 -177 19
-227 3 -27 8 -86 11 -130 3 -44 7 -98 10 -120 2 -22 6 -74 10 -115 3 -41 7
-95 10 -120 3 -25 7 -79 10 -120 3 -41 7 -97 10 -125 3 -27 7 -74 9 -103 2
-29 6 -55 9 -59 4 -3 2 -13 -3 -23 -5 -10 -6 -20 -3 -24 4 -4 8 -17 9 -29 5
-84 16 -207 20 -232 2 -16 6 -66 9 -110 3 -44 7 -96 9 -115 2 -19 7 -75 11
-125 3 -49 8 -108 10 -130 5 -46 14 -156 20 -235 5 -62 13 -161 20 -235 5 -50
9 -99 20 -250 4 -43 9 -83 11 -87 3 -4 97 -8 210 -8 l204 0 1 38 c0 20 2 46 4
57 2 11 7 52 10 90 3 39 8 81 10 95 2 14 7 54 10 90 3 36 8 76 10 90 2 14 7
58 10 99 4 41 8 88 11 105 2 17 7 60 9 96 7 82 9 92 18 108 5 7 3 12 -3 12 -6
0 -9 3 -7 8 3 4 8 32 11 62 4 30 9 71 11 90 3 19 7 60 9 90 3 30 8 73 11 95 2
22 7 67 10 100 3 33 7 76 10 95 2 19 7 64 10 100 3 36 8 76 10 90 2 14 6 55
10 92 3 37 8 75 10 86 2 10 6 54 9 98 4 43 9 93 11 109 3 17 7 50 9 75 7 80
19 195 22 210 1 8 3 24 3 34 1 30 10 14 16 -30 9 -58 11 -71 29 -164 8 -47 17
-98 20 -115 3 -16 10 -59 16 -95 6 -36 13 -78 16 -95 3 -16 12 -70 21 -120 8
-49 17 -103 19 -120 3 -16 10 -54 15 -84 6 -30 12 -64 14 -75 1 -12 5 -34 8
-51 3 -16 9 -46 11 -65 3 -19 8 -48 11 -65 22 -128 29 -169 40 -230 7 -38 13
-77 13 -85 1 -8 6 -37 12 -65 6 -27 13 -68 15 -90 3 -22 8 -51 11 -65 3 -14 7
-38 10 -55 2 -16 6 -37 9 -45 2 -8 7 -37 10 -65 4 -27 9 -58 11 -67 5 -18 8
-32 18 -98 8 -48 24 -140 30 -169 3 -14 8 -45 11 -70 4 -25 9 -64 13 -86 l7
-40 235 -3 235 -2 1 47 c1 27 5 86 8 133 8 88 10 117 20 260 19 259 22 300 31
435 3 50 8 110 10 135 9 107 18 249 19 297 1 29 3 53 6 53 3 0 5 19 6 43 0 41
9 188 19 312 5 58 10 127 21 285 2 41 7 104 10 140 2 36 7 92 9 125 2 33 7 94
10 135 6 94 12 179 20 295 3 50 8 113 10 140 2 28 7 91 11 140 3 50 7 108 9
130 2 22 4 64 6 93 1 28 5 52 8 52 3 0 27 -19 53 -43 26 -23 75 -67 110 -97
64 -57 159 -141 168 -150 6 -6 258 -230 309 -275 19 -16 44 -39 55 -50 12 -11
59 -53 106 -94 47 -41 86 -78 88 -82 2 -5 -71 -83 -163 -175 l-166 -167 28
-29 c15 -17 202 -205 416 -418 l387 -387 193 193 193 194 59 -53 c32 -28 106
-94 164 -146 58 -52 115 -102 126 -112 11 -10 46 -42 79 -71 75 -68 100 -90
160 -141 27 -23 61 -54 77 -70 15 -15 30 -27 34 -27 3 0 42 75 86 168 82 169
195 401 310 637 34 72 62 133 61 137 -1 3 5 12 13 18 8 7 15 17 15 22 0 6 28
67 62 137 34 69 63 128 63 131 1 3 38 80 83 172 45 92 82 170 82 172 0 3 -10
15 -22 28 -13 13 -52 56 -88 97 -36 41 -77 88 -92 104 -19 22 -24 35 -18 46 5
9 63 70 129 135 67 66 121 122 121 125 0 4 -186 192 -414 420 l-413 413 -111
-111 -111 -110 -63 71 c-35 39 -76 86 -93 103 -16 18 -53 59 -82 91 -28 33
-65 75 -83 94 -17 19 -50 57 -73 83 -23 26 -63 71 -89 100 -51 56 -57 67 -33
67 8 0 23 4 33 10 9 5 94 41 187 79 94 38 184 75 200 82 17 7 32 13 35 14 3 1
16 6 30 12 61 26 182 75 190 78 3 1 18 7 34 14 15 6 63 25 105 42 42 17 85 35
96 39 11 5 76 32 145 60 69 28 134 55 145 60 11 5 83 34 160 65 77 31 154 62
170 70 35 16 76 32 90 35 6 1 19 7 30 13 11 6 22 12 25 13 7 1 42 15 65 24 11
5 61 25 110 46 50 20 104 42 120 49 17 8 77 32 135 55 95 38 131 53 195 81 45
20 172 71 200 81 17 5 44 16 60 23 50 22 147 62 292 121 76 31 149 61 163 67
14 6 27 11 30 12 3 0 14 6 25 12 11 6 22 11 25 11 9 1 190 74 310 125 14 6 27
11 30 12 17 6 51 20 87 36 24 10 47 19 51 19 5 0 22 6 38 14 88 43 163 72 177
68 4 -1 7 2 7 7 0 4 20 14 45 21 25 7 48 17 52 23 3 6 -14 28 -38 50 -48 43
-207 187 -250 227 -15 14 -60 54 -100 90 -39 36 -84 76 -99 90 -15 14 -60 54
-100 90 -40 36 -89 81 -111 101 -21 20 -71 65 -110 100 -40 35 -84 75 -99 89
-15 14 -43 39 -63 57 l-36 32 -126 -2 c-70 -1 -128 -3 -129 -4z"/>
</g>
</svg>
